<?xml version="1.0" standalone="no"?>
<!DOCTYPE svg PUBLIC "-//W3C//DTD SVG 20010904//EN"
 "http://www.w3.org/TR/2001/REC-SVG-20010904/DTD/svg10.dtd">
<svg version="1.0" xmlns="http://www.w3.org/2000/svg"
 width="387.000000pt" height="208.000000pt" viewBox="0 0 387.000000 208.000000"
 preserveAspectRatio="xMidYMid meet">

<g transform="translate(0.000000,208.000000) scale(0.100000,-0.100000)"
fill="#000000" stroke="none">
<path d="M550 1400 l0 -220 95 0 c148 0 212 37 242 139 34 117 -5 239 -90 280
-35 17 -62 21 -145 21 l-102 0 0 -220z m192 178 c75 -22 116 -105 104 -207
-12 -100 -60 -148 -160 -158 -83 -9 -86 -2 -86 187 0 131 3 161 16 174 18 19
71 21 126 4z"/>
<path d="M1630 1570 c0 -27 3 -30 30 -30 27 0 30 3 30 30 0 27 -3 30 -30 30
-27 0 -30 -3 -30 -30z"/>
<path d="M1981 1503 c-17 -11 -41 -16 -78 -14 -47 2 -56 -1 -83 -28 -23 -23
-30 -38 -30 -68 0 -22 6 -48 14 -58 12 -17 12 -22 -5 -44 -23 -29 -24 -39 -3
-62 14 -16 14 -19 -5 -38 -26 -26 -27 -65 -2 -90 42 -42 185 -42 226 0 36 37
39 63 13 93 -19 21 -37 28 -103 37 -86 12 -107 22 -98 45 3 9 21 14 54 14 26
0 60 5 74 12 50 23 71 101 39 146 -15 22 -15 23 15 35 33 12 42 37 13 37 -10
0 -28 -8 -41 -17z m-36 -68 c33 -32 32 -68 -1 -94 -31 -24 -43 -26 -79 -9 -45
20 -46 95 -3 116 36 17 57 14 83 -13z m38 -250 c10 -4 17 -18 17 -32 0 -33
-58 -57 -119 -49 -70 10 -90 39 -53 79 14 16 26 18 77 14 33 -3 68 -9 78 -12z"/>
<path d="M1035 1468 c-37 -29 -55 -76 -55 -143 0 -97 48 -155 127 -155 71 0
135 46 119 86 -9 22 -32 16 -44 -11 -14 -30 -54 -48 -88 -39 -30 8 -64 49 -64
78 0 39 19 46 117 46 90 0 93 1 93 23 -1 34 -35 102 -61 121 -35 24 -110 21
-144 -6z m119 -29 c20 -15 26 -29 24 -48 -3 -23 -8 -26 -47 -29 -92 -7 -120
20 -72 69 35 34 59 36 95 8z"/>
<path d="M1339 1461 c-58 -58 -31 -110 71 -141 72 -22 93 -41 84 -78 -7 -26
-55 -46 -90 -38 -14 4 -36 18 -49 32 -24 26 -45 25 -45 -1 0 -7 14 -25 31 -39
25 -21 41 -26 86 -26 47 0 59 4 84 29 32 33 38 74 14 107 -15 23 -44 37 -112
54 -64 16 -73 82 -12 95 29 7 37 3 95 -40 9 -6 18 -5 26 3 11 11 7 19 -20 43
-27 24 -41 29 -83 29 -43 0 -55 -5 -80 -29z"/>
<path d="M2206 1465 c-34 -23 -36 -23 -36 -5 0 13 -7 20 -20 20 -19 0 -20 -7
-20 -150 0 -143 1 -150 20 -150 19 0 20 7 20 108 0 105 1 109 28 134 39 38 75
45 101 19 19 -19 21 -33 21 -141 0 -113 1 -120 20 -120 19 0 20 7 20 130 0
126 -1 132 -25 155 -32 33 -81 33 -129 0z"/>
<path d="M2514 1471 c-40 -24 -66 -80 -62 -131 l3 -40 40 27 c37 26 38 28 17
31 -18 3 -22 8 -16 25 12 41 33 65 63 72 17 4 35 4 41 0 6 -4 18 -1 26 6 38
31 -62 40 -112 10z"/>
<path d="M1640 1330 c0 -143 1 -150 20 -150 19 0 20 7 20 150 0 143 -1 150
-20 150 -19 0 -20 -7 -20 -150z"/>
<path d="M2673 980 c-40 -24 -53 -48 -53 -99 0 -60 36 -96 123 -123 85 -25
117 -53 117 -101 0 -51 -38 -82 -102 -82 -43 0 -53 4 -78 31 -15 17 -29 37
-32 45 -6 19 -38 3 -38 -19 0 -24 41 -69 75 -82 15 -6 50 -10 79 -10 83 0 145
52 146 122 0 68 -39 106 -142 135 -75 21 -98 43 -98 92 0 52 28 76 87 76 36 0
49 -5 68 -27 13 -15 25 -32 27 -39 2 -7 12 -9 26 -5 21 7 21 9 6 37 -34 66
-142 91 -211 49z"/>
<path d="M1812 973 c-5 -10 -38 -106 -72 -213 -34 -107 -64 -198 -67 -202 -2
-5 7 -8 20 -8 20 0 27 10 48 73 l24 72 60 3 c93 5 98 2 124 -78 17 -55 26 -70
42 -70 10 0 19 6 19 13 0 6 -31 104 -68 217 -64 195 -68 205 -94 208 -18 2
-30 -3 -36 -15z m67 -136 c13 -41 21 -82 18 -91 -8 -20 -103 -23 -110 -3 -9
25 46 182 61 173 4 -2 19 -38 31 -79z"/>
<path d="M2050 976 c0 -18 90 -407 96 -418 3 -4 18 -8 33 -8 27 0 27 1 65 163
21 89 42 169 46 177 12 21 25 -13 55 -150 44 -195 42 -190 75 -190 l28 0 51
210 c28 116 51 215 51 221 0 6 -10 9 -22 7 -19 -2 -25 -13 -36 -63 -50 -237
-65 -287 -77 -273 -7 7 -27 78 -44 158 -43 193 -38 180 -71 180 -33 0 -31 6
-82 -214 -16 -72 -32 -133 -34 -135 -11 -12 -23 24 -48 144 -41 197 -44 205
-66 205 -11 0 -20 -6 -20 -14z"/>
</g>
</svg>
